<?xml version="1.0" encoding="UTF-8" standalone="no"?>
<!DOCTYPE svg PUBLIC "-//W3C//DTD SVG 1.1//EN" "http://www.w3.org/Graphics/SVG/1.1/DTD/svg11.dtd">
<svg width="100%" height="100%" viewBox="0 0 180 77" version="1.1" xmlns="http://www.w3.org/2000/svg" xmlns:xlink="http://www.w3.org/1999/xlink" xml:space="preserve" xmlns:serif="http://www.serif.com/" style="fill-rule:evenodd;clip-rule:evenodd;stroke-linejoin:round;stroke-miterlimit:2;">
    <g id="Artboard1" transform="matrix(0.646587,0,0,0.639155,-7.02806,3.48194)">
        <rect x="10.869" y="11.579" width="277.498" height="86.215" style="fill:none;"/>
        <g transform="matrix(1.005,0,0,1.01669,-0.56808,-1.04315)">
            <path d="M79.08,29.28L79.08,30.054C79.08,38.452 79.095,46.85 79.071,55.248C79.064,57.727 78.456,60.11 77.561,62.403C76.546,65.001 75.207,67.433 73.625,69.741C71.887,72.276 69.805,74.491 67.568,76.572C65.438,78.553 63.159,80.36 60.695,81.911C58.823,83.089 56.903,84.189 54.993,85.306C54.607,85.532 54.188,85.752 53.758,85.835C53.355,85.912 52.849,85.931 52.506,85.751C50.946,84.932 49.402,84.076 47.902,83.152C46.169,82.086 44.47,80.962 42.791,79.811C41.966,79.247 41.189,78.602 40.445,77.932C39.131,76.748 37.796,75.576 36.587,74.289C35.472,73.102 34.477,71.796 33.49,70.496C32.051,68.601 30.902,66.529 29.863,64.391C28.805,62.215 28.043,59.945 27.613,57.567C27.515,57.025 27.485,56.465 27.484,55.913C27.484,48.123 27.494,40.333 27.499,32.543C27.5,31.646 27.504,30.748 27.471,29.852C27.454,29.398 27.624,29.222 28.063,29.278C28.122,29.286 28.183,29.279 28.243,29.279L78.392,29.279C78.592,29.28 78.791,29.28 79.08,29.28ZM29.794,31.829C29.779,32.017 29.761,32.135 29.761,32.252C29.76,39.389 29.766,46.526 29.748,53.663C29.747,54.249 30.041,54.245 30.458,54.244C37.755,54.239 45.052,54.24 52.349,54.24C53.159,54.24 53.16,54.237 53.16,53.453C53.16,46.796 53.157,40.139 53.166,33.481C53.166,32.939 53.248,32.396 53.293,31.829L29.794,31.829ZM53.299,83.574C54.592,82.882 55.776,82.3 56.906,81.629C58.248,80.834 59.525,79.929 60.866,79.132C62.664,78.065 64.284,76.768 65.781,75.329C67.225,73.939 68.637,72.506 69.951,70.994C70.928,69.87 71.757,68.611 72.594,67.373C73.606,65.877 74.486,64.301 75.124,62.603C75.42,61.814 75.675,61.01 75.972,60.221C76.008,60.125 76.188,60.084 76.229,60.06C76.211,59.866 76.165,59.706 76.189,59.557C76.257,59.139 76.376,58.729 76.436,58.31C76.56,57.456 76.68,56.6 76.76,55.741C76.802,55.291 76.852,54.796 76.701,54.395C76.642,54.239 76.043,54.283 75.689,54.242C75.59,54.231 75.489,54.24 75.389,54.24C68.329,54.24 61.27,54.238 54.21,54.246C53.908,54.246 53.605,54.334 53.299,54.381L53.299,83.574ZM69.788,48.96C69.814,48.874 69.835,48.837 69.835,48.8C69.838,47.333 69.84,45.865 69.84,44.398C69.841,42.199 69.845,40.001 69.832,37.802C69.831,37.609 69.765,37.309 69.635,37.242C68.741,36.779 67.449,37.583 67.443,38.591C67.433,40.35 67.426,42.109 67.447,43.868C67.455,44.522 67.546,45.176 67.599,45.829C67.547,45.838 67.495,45.847 67.444,45.856C67.163,45.198 66.886,44.539 66.601,43.882C65.706,41.82 64.817,39.756 63.897,37.706C63.817,37.529 63.532,37.351 63.332,37.337C62.635,37.292 61.934,37.331 61.234,37.316C60.76,37.305 60.586,37.484 60.588,37.982C60.607,41.46 60.598,44.938 60.6,48.416C60.6,48.59 60.619,48.764 60.631,48.969L63.006,48.969L63.006,40.533C63.47,41.609 63.948,42.734 64.439,43.854C65.129,45.43 65.817,47.007 66.538,48.57C66.62,48.748 66.903,48.933 67.101,48.942C67.983,48.982 68.866,48.96 69.788,48.96ZM45.6,65.25C45.6,63.51 45.582,61.77 45.611,60.031C45.619,59.518 45.445,59.358 44.954,59.393C44.456,59.428 43.954,59.414 43.455,59.396C43.1,59.383 42.954,59.511 42.955,59.881C42.963,63.441 42.963,67 42.955,70.56C42.955,70.929 43.1,71.057 43.455,71.045C43.955,71.027 44.457,71.013 44.955,71.048C45.446,71.082 45.62,70.923 45.612,70.409C45.582,68.69 45.6,66.97 45.6,65.25Z" style="fill:white;"/>
            <rect x="108.867" y="69.631" width="177.669" height="0.651" style="fill:white;"/>
            <path d="M207.242,42.744C207.201,39.912 207.157,37.079 207.127,34.247C207.124,33.917 207.171,33.579 207.254,33.259C207.367,32.821 207.659,32.539 208.137,32.523C208.533,32.51 208.93,32.521 209.364,32.521L209.364,45.786C208.534,45.797 207.677,45.843 206.826,45.793C206.635,45.782 206.402,45.465 206.291,45.238C205.353,43.321 204.438,41.394 203.52,39.468C202.933,38.238 202.352,37.006 201.686,35.778C201.738,36.416 201.831,37.053 201.835,37.692C201.853,40.191 201.832,42.69 201.851,45.189C201.854,45.668 201.741,45.858 201.218,45.853C199.563,45.838 199.563,45.859 199.563,44.219C199.563,40.54 199.571,36.861 199.553,33.183C199.551,32.685 199.724,32.502 200.199,32.517C200.678,32.533 201.164,32.565 201.637,32.51C202.271,32.435 202.565,32.692 202.827,33.267C203.888,35.6 205.019,37.902 206.114,40.221C206.508,41.063 206.874,41.922 207.242,42.744Z" style="fill:white;"/>
            <path d="M44.397,18.677C44.523,18.786 44.682,18.874 44.77,19.008C45.337,19.876 45.886,20.755 46.449,21.626C46.534,21.757 46.65,21.873 46.764,21.982C47.433,22.621 47.984,22.492 48.106,21.58C48.214,20.773 48.116,19.939 48.125,19.117C48.127,18.905 48.188,18.694 48.222,18.482C48.3,18.47 48.378,18.458 48.456,18.446C48.664,18.951 48.837,19.474 49.088,19.956C49.338,20.437 49.603,20.938 49.972,21.323C50.514,21.887 51.255,21.823 51.623,21.131C52.029,20.369 52.352,19.532 52.535,18.689C52.759,17.657 52.789,16.584 52.931,15.532C52.957,15.334 53.113,15.153 53.209,14.964C53.282,14.975 53.355,14.987 53.428,14.998C53.498,15.504 53.553,16.013 53.643,16.515C53.878,17.822 54.08,19.138 54.402,20.424C54.502,20.822 54.883,21.229 55.245,21.464C55.827,21.843 56.496,21.65 56.848,21.055C57.183,20.487 57.433,19.867 57.72,19.27C57.85,18.998 57.98,18.726 58.11,18.454C58.164,18.461 58.217,18.467 58.27,18.474C58.326,18.665 58.432,18.858 58.428,19.048C58.41,19.859 58.371,20.669 58.316,21.478C58.285,21.938 58.455,22.311 58.901,22.338C59.195,22.356 59.619,22.186 59.788,21.956C60.448,21.06 61.023,20.101 61.645,19.176C61.775,18.983 61.971,18.835 62.137,18.665C62.199,18.713 62.262,18.76 62.324,18.808C62.101,19.359 61.874,19.909 61.657,20.462C61.016,22.097 60.379,23.734 59.741,25.37C59.444,26.131 59.309,26.209 58.561,25.91C57.399,25.445 56.191,25.244 54.948,25.199C54.116,25.169 53.281,25.052 52.454,25.096C50.79,25.185 49.114,25.285 47.587,26.065C47.254,26.235 47.118,26.125 47.003,25.836C46.455,24.458 45.907,23.08 45.351,21.705C45.058,20.981 44.741,20.267 44.452,19.541C44.355,19.298 44.312,19.035 44.244,18.78C44.294,18.744 44.346,18.711 44.397,18.677Z" style="fill:white;"/>
            <path d="M116.679,42.72C115.271,42.72 113.873,42.732 112.475,42.712C112.139,42.707 112.036,42.862 111.956,43.138C111.729,43.926 111.493,44.711 111.236,45.489C111.191,45.625 111.029,45.82 110.919,45.822C110.235,45.835 109.551,45.801 108.743,45.779C109.022,44.908 109.246,44.187 109.484,43.47C110.552,40.244 111.628,37.021 112.693,33.794C113.112,32.524 113.104,32.512 114.447,32.523C116.262,32.539 115.794,32.258 116.371,33.927C117.162,36.212 117.838,38.535 118.578,40.838C119.044,42.287 119.52,43.734 120.031,45.168C120.166,45.547 120.092,45.702 119.724,45.731C119.196,45.773 118.627,45.917 118.149,45.774C117.819,45.676 117.529,45.201 117.37,44.831C117.086,44.172 116.916,43.465 116.679,42.72ZM114.411,35.038C113.848,36.962 113.312,38.791 112.771,40.638L116.035,40.638C115.496,38.779 114.97,36.966 114.411,35.038Z" style="fill:white;"/>
            <path d="M221.236,62.625C220.426,63.69 219.173,63.918 217.851,63.668C216.707,63.452 216.018,62.559 215.697,61.513C215.188,59.858 215.052,58.158 215.639,56.469C216.192,54.879 217.62,53.579 219.293,53.771C219.864,53.836 220.421,54.032 221.041,54.181L221.041,50.509C221.041,49.274 221.405,49.013 222.609,49.386C223.194,49.568 223.438,49.996 223.439,50.891C223.442,54.289 223.433,57.687 223.452,61.085C223.454,61.422 223.523,61.834 223.723,62.079C224.114,62.56 223.76,62.858 223.551,63.169C223.326,63.505 223.012,63.793 222.554,63.502C222.123,63.228 221.703,62.938 221.236,62.625ZM221.04,58.583C221.04,57.945 221.059,57.307 221.029,56.67C221.02,56.479 220.931,56.205 220.788,56.118C219.594,55.398 218.488,55.412 218.073,56.944C217.821,57.874 217.78,58.897 217.846,59.864C217.885,60.434 218.216,61.068 218.603,61.51C219.044,62.015 219.68,61.805 220.216,61.486C220.704,61.195 221.12,60.879 221.05,60.196C220.997,59.664 221.041,59.121 221.04,58.583Z" style="fill:white;"/>
            <path d="M213.602,50.378C213.602,50.874 213.59,51.351 213.605,51.826C213.621,52.319 213.397,52.458 212.918,52.451C211.285,52.425 209.651,52.441 207.989,52.441L207.989,55.778L212.547,55.778L212.547,57.903L207.992,57.903L207.992,61.426L213.86,61.426C214.231,62.786 213.623,63.537 212.159,63.587C210.482,63.645 208.801,63.619 207.122,63.594C206.008,63.578 205.561,63.088 205.561,61.985C205.561,58.287 205.561,54.589 205.56,50.89C205.56,50.522 205.565,50.337 206.103,50.351C208.561,50.413 211.021,50.378 213.602,50.378Z" style="fill:white;"/>
            <path d="M159.1,39.84C158.955,39.349 158.905,38.8 158.645,38.38C158.211,37.679 157.438,37.883 156.791,37.964C156.178,38.041 155.568,38.225 154.985,38.44C154.609,38.579 154.433,38.506 154.317,38.154C154.293,38.08 154.24,38.016 154.207,37.944C153.764,36.993 153.905,36.756 154.903,36.471C156.03,36.149 157.16,35.984 158.337,35.986C159.804,35.989 161.299,37.076 161.292,38.647C161.286,40.218 161.35,41.789 161.41,43.359C161.422,43.68 161.448,44.095 161.643,44.298C162.185,44.864 161.603,45.155 161.408,45.51C161.2,45.889 160.8,45.971 160.429,45.756C160.009,45.512 159.628,45.2 159.192,44.892C158.403,45.693 157.411,46.005 156.24,45.976C154.667,45.936 153.691,44.72 153.611,43.365C153.467,40.937 155.043,40.017 157.052,39.847C157.673,39.796 158.304,39.84 159.1,39.84ZM157.829,41.439C157.415,41.532 156.95,41.534 156.6,41.737C155.985,42.093 155.809,42.898 156.102,43.501C156.377,44.069 156.828,44.228 157.64,44.041C158.463,43.852 159.004,43.303 159,42.652C158.99,41.358 159.158,41.534 157.829,41.439Z" style="fill:white;"/>
            <path d="M250.486,62.74C249.998,63 249.417,63.491 248.763,63.623C246.637,64.051 245.072,63.397 244.813,60.911C244.668,59.517 245.729,58.109 247.105,57.856C248.095,57.674 249.111,57.641 250.16,57.538C250.329,56.64 250.026,55.826 249.278,55.725C248.688,55.646 248.063,55.771 247.461,55.858C247.079,55.913 246.687,56.014 246.341,56.181C245.858,56.415 245.622,56.195 245.469,55.801C245.344,55.477 245.263,55.133 245.196,54.792C245.179,54.71 245.271,54.542 245.347,54.517C247.071,53.934 248.82,53.419 250.649,53.934C251.854,54.273 252.591,55.361 252.6,56.626C252.61,58.105 252.584,59.583 252.615,61.061C252.622,61.418 252.695,61.849 252.904,62.113C253.334,62.655 252.866,62.952 252.681,63.316C252.492,63.689 252.103,63.694 251.794,63.547C251.349,63.335 250.95,63.032 250.486,62.74ZM250.2,59.283C249.541,59.283 248.944,59.248 248.353,59.293C247.732,59.34 247.253,59.889 247.201,60.518C247.145,61.184 247.473,61.738 248.065,61.872C248.779,62.034 249.39,61.688 249.892,61.269C250.117,61.082 250.136,60.616 250.191,60.268C250.237,59.976 250.2,59.672 250.2,59.283Z" style="fill:white;"/>
            <path d="M259.397,39.84C259.609,38.623 259.154,37.757 257.727,37.927C257.206,37.989 256.694,38.129 256.178,38.234C256.101,38.25 256.027,38.276 255.949,38.287C255.619,38.331 255.092,38.517 254.996,38.387C254.708,37.997 254.577,37.488 254.422,37.012C254.403,36.952 254.594,36.776 254.717,36.726C256.184,36.138 257.715,35.828 259.284,36.02C260.654,36.188 261.81,37.196 261.836,38.981C261.857,40.399 261.827,41.819 261.85,43.238C261.855,43.56 261.942,43.897 262.064,44.198C262.282,44.733 262.208,45.42 261.741,45.729C261.264,46.044 260.791,45.756 260.379,45.499C260.155,45.358 259.999,45.11 259.778,44.874C259.627,44.979 259.448,45.094 259.279,45.222C258.085,46.12 256.794,46.237 255.453,45.631C254.347,45.131 253.963,43.455 254.077,42.6C254.349,40.554 256.098,39.951 257.627,39.848C258.209,39.808 258.796,39.84 259.397,39.84ZM259.439,41.521C258.785,41.521 258.226,41.498 257.669,41.527C256.99,41.563 256.478,42.116 256.44,42.8C256.402,43.485 256.793,44.136 257.398,44.121C257.912,44.108 258.435,43.853 258.921,43.633C259.135,43.536 259.382,43.277 259.415,43.06C259.491,42.578 259.439,42.075 259.439,41.521Z" style="fill:white;"/>
            <path d="M217.375,45C216.821,45.271 216.193,45.75 215.498,45.885C213.29,46.313 211.774,45.358 211.7,42.991C211.648,41.338 212.851,40.126 214.533,39.965C215.35,39.886 216.173,39.875 217.02,39.832C217.351,38.034 216.259,37.744 214.862,37.96C214.307,38.046 213.748,38.2 213.234,38.422C212.708,38.65 212.484,38.401 212.325,37.998C212.204,37.693 212.13,37.364 212.086,37.038C212.074,36.945 212.22,36.773 212.331,36.729C213.818,36.138 215.374,35.807 216.958,36.024C218.392,36.221 219.423,37.202 219.472,38.866C219.514,40.324 219.462,41.786 219.493,43.245C219.501,43.623 219.578,44.061 219.785,44.36C220.192,44.948 219.677,45.242 219.452,45.585C219.342,45.753 218.907,45.863 218.704,45.783C218.252,45.608 217.854,45.294 217.375,45ZM217.08,41.521C216.436,41.521 215.88,41.499 215.326,41.527C214.606,41.562 214.111,42.098 214.081,42.824C214.051,43.553 214.396,44.129 215.043,44.121C215.553,44.115 216.076,43.854 216.561,43.635C216.775,43.538 217.023,43.281 217.057,43.066C217.13,42.583 217.08,42.082 217.08,41.521Z" style="fill:white;"/>
            <path d="M179.739,39.838C179.795,39.273 179.824,38.659 179.252,38.186C178.723,37.749 178.111,37.891 177.543,37.967C176.97,38.044 176.404,38.234 175.859,38.439C175.442,38.596 175.213,38.483 175.071,38.1C174.95,37.772 174.82,37.445 174.746,37.106C174.723,37 174.844,36.777 174.946,36.741C176.55,36.169 178.17,35.779 179.903,36.103C181.311,36.366 182.131,37.689 182.155,39.015C182.182,40.432 182.15,41.851 182.17,43.269C182.174,43.573 182.25,43.893 182.365,44.176C182.618,44.796 182.585,45.402 182.004,45.706C181.691,45.87 180.944,45.756 180.751,45.499C180.16,44.712 179.78,45.075 179.19,45.477C177.913,46.347 175.326,46.304 174.603,44.264C173.919,42.338 174.739,40.367 177.077,39.977C177.935,39.834 178.824,39.88 179.739,39.838ZM179.76,41.52L179.207,41.52C178.769,41.52 178.331,41.504 177.894,41.524C177.302,41.552 176.792,42.147 176.761,42.812C176.725,43.565 177.102,44.156 177.772,44.125C178.283,44.102 178.798,43.831 179.277,43.599C179.484,43.498 179.706,43.233 179.739,43.015C179.809,42.551 179.76,42.069 179.76,41.52Z" style="fill:white;"/>
            <path d="M159.12,53.909L161.52,53.909L161.52,54.541C161.52,56.699 161.506,58.856 161.533,61.014C161.537,61.39 161.614,61.84 161.83,62.123C162.249,62.673 161.81,62.998 161.573,63.31C161.43,63.498 160.98,63.631 160.76,63.547C160.341,63.388 159.892,63.126 159.633,62.775C159.33,62.365 159.18,62.463 158.863,62.705C157.938,63.411 156.94,63.803 155.713,63.624C154.458,63.442 153.764,62.125 153.728,61.18C153.664,59.511 153.652,57.84 153.595,56.171C153.576,55.644 153.458,55.121 153.431,54.594C153.422,54.415 153.505,54.12 153.628,54.066C154.204,53.813 154.835,53.606 155.435,53.913C156.033,54.219 156.111,54.848 156.117,55.448C156.132,56.986 156.124,58.524 156.121,60.062C156.121,60.534 156.05,61.079 156.548,61.318C157.099,61.583 157.679,61.477 158.239,61.193C158.906,60.855 159.179,60.401 159.145,59.61C159.072,57.915 159.123,56.215 159.123,54.517C159.12,54.324 159.12,54.129 159.12,53.909Z" style="fill:white;"/>
            <path d="M184.707,36.179C186.275,35.968 186.695,36.13 187.052,37.125C187.189,37.046 187.323,36.985 187.439,36.899C188.352,36.22 189.313,35.884 190.503,36.078C191.691,36.271 192.435,37.51 192.472,38.548C192.539,40.397 192.552,42.248 192.607,44.097C192.616,44.403 192.677,44.726 192.801,45.003C192.936,45.307 192.9,45.529 192.596,45.589C192.025,45.701 191.411,45.893 190.87,45.783C190.063,45.618 190.114,44.797 190.095,44.178C190.047,42.621 190.073,41.062 190.081,39.503C190.086,38.557 189.86,38.027 188.671,38.297C188.197,38.405 187.743,38.68 187.335,38.959C187.173,39.07 187.092,39.397 187.089,39.627C187.07,41.465 187.057,43.304 187.091,45.141C187.102,45.717 186.865,45.844 186.36,45.846C184.679,45.85 184.678,45.862 184.679,44.186C184.68,41.569 184.681,38.952 184.683,36.334C184.684,36.296 184.695,36.257 184.707,36.179Z" style="fill:white;"/>
            <path d="M275.423,58.52C275.387,60.096 275.144,61.372 274.233,62.464C273.678,63.129 272.977,63.585 272.171,63.681C270.656,63.861 269.106,63.824 268.086,62.431C267.615,61.786 267.211,61.016 267.041,60.244C266.701,58.703 266.828,57.17 267.583,55.719C268.186,54.561 269.115,53.98 270.377,53.742C271.526,53.526 272.548,53.733 273.511,54.339C274.565,55.002 275.037,56.042 275.271,57.207C275.372,57.705 275.39,58.221 275.423,58.52ZM272.936,58.757C272.917,58.755 272.899,58.753 272.88,58.751C272.88,58.432 272.891,58.113 272.878,57.794C272.848,57.071 272.681,56.354 272.14,55.874C271.437,55.251 270.119,55.35 269.645,56.778C269.235,58.014 269.335,59.276 269.556,60.517C269.707,61.37 270.434,61.927 271.156,61.92C271.898,61.914 272.541,61.379 272.731,60.512C272.857,59.939 272.872,59.343 272.936,58.757Z" style="fill:white;"/>
            <path d="M231.501,62.445C230.786,63.166 229.832,63.544 228.787,63.713C227.591,63.907 226.191,62.84 226.102,61.514C225.977,59.649 226.016,57.773 225.95,55.904C225.932,55.386 225.793,54.874 225.695,54.267C226.143,53.957 226.663,53.617 227.409,53.86C228.169,54.108 228.355,54.261 228.359,55.041C228.366,56.561 228.358,58.081 228.364,59.601C228.365,59.857 228.353,60.13 228.436,60.364C228.565,60.732 228.729,61.339 228.951,61.373C229.479,61.455 230.076,61.335 230.598,61.158C231.196,60.955 231.398,60.465 231.379,59.794C231.328,58.015 231.373,56.234 231.353,54.455C231.348,54.005 231.5,53.851 231.943,53.873C232.52,53.902 233.099,53.88 233.761,53.88L233.761,54.544C233.761,56.444 233.741,58.344 233.771,60.243C233.783,60.98 233.811,61.721 234.243,62.4C234.343,62.558 234.059,63.008 233.886,63.282C233.652,63.652 233.263,63.741 232.902,63.509C232.431,63.206 232.006,62.834 231.501,62.445Z" style="fill:white;"/>
            <path d="M252.344,45.51C251.94,45.92 251.274,45.878 250.629,45.828C250.089,45.786 249.725,45.248 249.723,44.562C249.717,42.904 249.723,41.246 249.721,39.587C249.72,38.352 249.008,37.875 247.879,38.38C246.642,38.934 246.702,39.077 246.715,40.085C246.738,41.803 246.707,43.522 246.731,45.239C246.737,45.692 246.548,45.821 246.144,45.842C244.322,45.937 244.322,45.943 244.322,44.146L244.322,36.196C245.788,35.932 246.304,36.148 246.636,37.078C247.252,36.765 247.844,36.335 248.505,36.15C250.536,35.582 251.935,36.538 252.103,38.711C252.206,40.042 252.097,41.387 252.131,42.725C252.152,43.602 252.261,44.474 252.344,45.51Z" style="fill:white;"/>
            <path d="M126.84,36.149L129.24,36.149L129.24,38.26C129.24,39.86 129.217,41.46 129.255,43.059C129.266,43.515 129.37,44.011 129.583,44.408C129.842,44.888 129.665,45.182 129.387,45.517C129.092,45.874 128.733,45.979 128.343,45.729C127.898,45.444 127.485,45.108 126.971,44.73C126.684,44.917 126.274,45.251 125.81,45.472C124.685,46.009 123.542,46.236 122.45,45.371C121.717,44.79 121.484,43.954 121.454,43.092C121.401,41.594 121.464,40.093 121.428,38.594C121.412,37.917 121.275,37.242 121.182,36.47C121.732,36.009 122.453,35.835 123.248,36.195C123.777,36.435 123.83,36.949 123.834,37.443C123.847,39.042 123.832,40.642 123.844,42.242C123.846,42.552 123.89,42.87 123.971,43.171C124.103,43.664 124.96,43.93 125.623,43.618C126.682,43.12 126.879,43.052 126.851,41.883C126.807,39.987 126.84,38.09 126.84,36.149Z" style="fill:white;"/>
            <path d="M277.44,53.888C278.408,53.904 279.403,53.602 279.769,54.901C280.091,54.694 280.361,54.514 280.639,54.345C281.572,53.778 282.577,53.564 283.623,53.919C284.607,54.252 285.183,55.241 285.227,56.507C285.28,58.004 285.215,59.505 285.251,61.003C285.265,61.605 285.347,62.223 285.521,62.797C285.636,63.177 285.53,63.358 285.231,63.414C284.713,63.511 284.176,63.606 283.658,63.566C283.144,63.526 282.843,62.934 282.841,62.17C282.836,60.571 282.815,58.972 282.847,57.374C282.874,56.038 282.067,55.685 280.93,56.151C280.147,56.471 279.772,56.936 279.817,57.855C279.898,59.55 279.823,61.251 279.851,62.95C279.859,63.457 279.655,63.596 279.194,63.606C277.441,63.644 277.441,63.652 277.441,61.898L277.441,54.584C277.44,54.369 277.44,54.154 277.44,53.888Z" style="fill:white;"/>
            <path d="M238.063,45.96C235.698,46.148 234.148,44.296 233.86,42.152C233.671,40.741 233.784,39.405 234.366,38.123C234.912,36.92 235.856,36.227 237.179,35.986C238.295,35.782 239.328,35.93 240.282,36.503C241.298,37.113 241.834,38.068 242.088,39.211C242.406,40.649 242.382,42.06 241.857,43.447C241.293,44.938 239.819,46.159 238.063,45.96ZM239.855,40.984C239.742,40.291 239.701,39.576 239.501,38.909C239.132,37.682 237.756,37.365 236.931,38.328C236.612,38.7 236.398,39.253 236.348,39.745C236.224,40.955 236.107,42.19 236.713,43.336C237.269,44.388 238.592,44.469 239.263,43.49C239.781,42.731 239.795,41.87 239.855,40.984Z" style="fill:white;"/>
            <path d="M115.68,53.909C117.386,53.806 117.683,53.938 117.997,54.914C118.861,54.303 119.727,53.731 120.852,53.753C122.265,53.78 123.156,54.546 123.329,55.928C123.511,57.381 123.425,58.866 123.485,60.335C123.524,61.269 123.616,62.201 123.693,63.254C123.304,63.608 122.665,63.662 122.006,63.594C121.463,63.538 121.084,63.02 121.081,62.341C121.074,60.681 121.102,59.022 121.07,57.362C121.051,56.352 120.778,56.127 120.255,55.985C119.313,55.729 118.078,56.632 118.078,57.597C118.078,59.396 118.065,61.196 118.087,62.995C118.093,63.444 117.914,63.581 117.505,63.603C115.677,63.702 115.678,63.708 115.678,61.909L115.678,54.591C115.68,54.377 115.68,54.161 115.68,53.909Z" style="fill:white;"/>
            <path d="M188.364,63.72C186.012,63.925 184.459,62.03 184.177,59.897C184.002,58.569 184.091,57.309 184.567,56.077C185.245,54.319 187.218,53.379 188.907,53.716C189.286,53.792 189.677,53.855 190.033,53.997C191.585,54.618 192.23,55.888 192.488,57.451C192.681,58.62 192.613,59.748 192.281,60.89C191.813,62.501 190.207,63.946 188.364,63.72ZM190.127,58.68C190.111,58.679 190.095,58.677 190.08,58.675C190.08,58.376 190.111,58.072 190.074,57.777C189.982,57.039 189.891,56.258 189.217,55.808C188.181,55.117 186.892,55.735 186.749,57.053C186.629,58.161 186.66,59.297 186.744,60.412C186.81,61.289 187.592,61.908 188.36,61.926C189.234,61.947 189.827,61.113 189.951,60.386C190.047,59.823 190.071,59.249 190.127,58.68Z" style="fill:white;"/>
            <path d="M172.949,59.52C172.844,61.273 174.002,62.19 175.728,61.769C176.291,61.632 176.837,61.419 177.547,61.19C177.717,61.58 177.93,62.004 178.078,62.449C178.113,62.555 177.962,62.811 177.838,62.865C177.162,63.158 176.486,63.562 175.777,63.645C174.293,63.817 172.687,64.029 171.607,62.658C171.096,62.01 170.735,61.162 170.559,60.349C170.256,58.957 170.345,57.562 170.851,56.174C171.603,54.111 173.682,53.303 175.721,53.822C177.893,54.375 178.711,56.968 178.363,58.594C178.342,58.689 178.316,58.789 178.323,58.884C178.362,59.42 178.089,59.538 177.599,59.53C176.065,59.503 174.529,59.52 172.949,59.52ZM176.172,57.698C176.101,56.84 176.005,56.031 175.234,55.596C174.745,55.319 174.146,55.312 173.687,55.709C173.095,56.221 172.829,56.888 172.952,57.698L176.172,57.698Z" style="fill:white;"/>
            <path d="M195,55.69L193.321,55.69C193.321,55.176 193.289,54.702 193.341,54.236C193.356,54.103 193.602,53.92 193.763,53.896C194.111,53.844 194.471,53.88 194.863,53.88C194.863,53.59 194.909,53.345 194.855,53.125C194.423,51.373 195.646,49.302 197.439,49.331C198.364,49.346 199.288,49.48 200.208,49.6C200.328,49.615 200.495,49.863 200.502,50.01C200.515,50.276 200.456,50.558 200.367,50.812C200.246,51.157 200.083,51.426 199.595,51.259C199.233,51.134 198.82,51.133 198.428,51.126C197.544,51.111 196.964,51.786 197.085,52.658C197.143,53.08 197.075,53.633 197.315,53.882C197.503,54.076 198.081,53.894 198.486,53.88C198.586,53.877 198.687,53.87 198.785,53.881C199.123,53.921 199.691,53.875 199.754,54.03C199.921,54.448 199.899,54.953 199.889,55.422C199.887,55.511 199.604,55.649 199.439,55.668C199.104,55.707 198.761,55.68 198.421,55.68L197.399,55.68L197.399,56.358C197.399,58.557 197.385,60.755 197.409,62.954C197.414,63.465 197.204,63.596 196.747,63.605C195,63.641 195,63.649 195,61.892L195,55.69Z" style="fill:white;"/>
            <path d="M137.726,38.241C136.627,38.08 135.671,37.928 134.711,37.805C134.264,37.747 133.925,37.99 133.823,38.403C133.719,38.819 133.898,39.182 134.323,39.367C135.146,39.726 135.985,40.054 136.793,40.445C138.248,41.149 138.89,42.835 138.166,44.268C137.661,45.268 136.73,45.849 135.61,45.943C134.328,46.051 133.048,45.989 131.83,45.465C131.029,45.12 130.92,44.764 131.407,43.885C131.631,43.481 131.881,43.313 132.339,43.595C133.098,44.064 133.943,44.197 134.831,44.167C135.416,44.148 135.795,43.84 135.929,43.342C136.058,42.862 135.708,42.527 135.284,42.336C134.643,42.048 133.992,41.786 133.343,41.516C132.5,41.165 131.874,40.569 131.543,39.732C130.971,38.287 131.878,36.66 133.506,36.12C135.077,35.599 136.563,35.992 138.022,36.571C138.137,36.617 138.262,36.907 138.221,37.031C138.064,37.508 137.844,37.962 137.726,38.241Z" style="fill:white;"/>
            <path d="M131.82,55.999C130.721,55.837 129.785,55.689 128.845,55.565C128.397,55.505 128.052,55.742 127.945,56.149C127.829,56.59 128.031,56.961 128.479,57.15C129.18,57.446 129.882,57.738 130.582,58.036C131.766,58.539 132.428,59.425 132.597,60.707C132.72,61.637 131.866,62.959 130.828,63.363C129.07,64.046 127.363,63.79 125.677,63.087C125.233,62.902 125.079,62.635 125.321,62.184C125.422,61.996 125.477,61.785 125.566,61.59C125.749,61.19 126.015,61.112 126.412,61.331C127.182,61.756 128.002,61.986 128.897,61.926C129.48,61.887 130.005,61.59 130.046,61.139C130.094,60.614 129.799,60.262 129.332,60.04C128.401,59.598 127.432,59.217 126.554,58.687C125.269,57.912 125.223,55.98 126.034,55.001C127.014,53.818 128.316,53.46 129.8,53.749C130.507,53.887 131.201,54.085 131.906,54.232C132.387,54.332 132.467,54.586 132.275,54.997C132.095,55.382 131.923,55.771 131.82,55.999Z" style="fill:white;"/>
            <path d="M243.52,62.275C241.979,63.978 239.018,64.24 237.406,62.947C236.675,62.361 236.249,61.51 236.093,60.577C235.797,58.809 235.651,57.041 236.704,55.435C237.706,53.907 239.483,53.324 241.243,53.839C242.565,54.225 243.339,55.082 243.582,56.399C243.772,57.425 243.089,58.093 242.318,57.963C242.162,57.937 241.998,57.946 241.839,57.962C241.45,57.999 241.303,57.835 241.312,57.443C241.318,57.134 241.264,56.819 241.203,56.513C241.08,55.899 240.714,55.563 240.064,55.556C239.308,55.548 238.932,55.756 238.689,56.42C238.188,57.797 238.207,59.204 238.626,60.584C238.94,61.62 239.891,62.031 240.94,61.684C241.327,61.556 241.742,61.44 242.064,61.207C242.489,60.9 242.755,60.951 243.002,61.378C243.174,61.68 243.348,61.979 243.52,62.275Z" style="fill:white;"/>
            <path d="M164.52,55.687L163.074,55.687L163.074,53.881C163.395,53.881 163.675,53.813 163.903,53.894C164.546,54.122 164.544,53.755 164.525,53.308C164.508,52.929 164.515,52.549 164.523,52.169C164.536,51.565 164.837,51.177 165.424,51.025C166.58,50.725 166.922,50.984 166.922,52.152L166.922,53.962C167.575,53.933 168.18,53.92 168.782,53.874C169.184,53.844 169.293,54.057 169.323,54.396C169.428,55.587 169.348,55.679 168.17,55.679L166.924,55.679C166.924,57.522 166.913,59.314 166.932,61.105C166.936,61.497 167.215,61.683 167.61,61.679C168.028,61.675 168.447,61.678 168.979,61.678C169.024,62.264 169.068,62.836 169.118,63.48C167.997,63.48 166.946,63.594 165.933,63.447C164.995,63.31 164.526,62.531 164.523,61.556C164.518,59.779 164.521,58 164.521,56.223C164.52,56.068 164.52,55.912 164.52,55.687Z" style="fill:white;"/>
            <path d="M149.64,53.97C150.316,53.937 150.908,53.923 151.497,53.876C151.896,53.844 152.01,54.054 152.041,54.395C152.148,55.585 152.066,55.681 150.89,55.681L149.64,55.681C149.64,57.183 149.648,58.636 149.638,60.088C149.627,61.698 149.556,61.716 151.227,61.682C151.346,61.68 151.465,61.682 151.614,61.682C151.64,61.763 151.675,61.83 151.682,61.9C151.724,62.31 151.819,62.726 151.786,63.131C151.732,63.783 151.13,63.478 150.828,63.515C150.115,63.601 149.358,63.605 148.658,63.459C147.72,63.264 147.246,62.534 147.243,61.563C147.238,59.785 147.242,58.006 147.242,56.228L147.242,55.711L145.797,55.711L145.797,53.883C146.131,53.883 146.432,53.812 146.679,53.897C147.26,54.098 147.253,53.765 147.244,53.373C147.236,52.974 147.233,52.574 147.244,52.174C147.261,51.576 147.548,51.179 148.14,51.026C149.294,50.727 149.641,50.987 149.641,52.15C149.64,52.745 149.64,53.341 149.64,53.97Z" style="fill:white;"/>
            <path d="M134.76,55.678L133.383,55.678C133.316,55.326 133.22,55.04 133.218,54.753C133.217,54.486 133.315,54.219 133.381,53.894C133.668,53.894 134.008,53.817 134.289,53.912C134.746,54.066 134.747,53.833 134.762,53.517C134.788,52.966 134.806,52.413 134.874,51.867C134.955,51.205 135.451,51.011 136.023,51.007C137.333,50.998 137.148,50.872 137.159,52.1C137.163,52.579 137.171,53.06 137.156,53.539C137.144,53.917 137.317,54.03 137.671,53.993C138.16,53.942 138.653,53.888 139.143,53.901C139.285,53.905 139.523,54.124 139.539,54.264C139.59,54.713 139.558,55.171 139.558,55.668L137.159,55.668L137.159,57.183C137.159,58.383 137.158,59.582 137.159,60.782C137.16,61.467 137.365,61.676 138.028,61.681L138.148,61.681C139.37,61.682 139.606,61.987 139.321,63.195C139.303,63.27 139.302,63.348 139.289,63.466C138.533,63.511 137.785,63.596 137.037,63.593C135.233,63.585 134.817,62.684 134.772,61.362C134.715,59.685 134.758,58.004 134.758,56.324C134.76,56.129 134.76,55.934 134.76,55.678Z" style="fill:white;"/>
            <path d="M145.167,45.711C144.37,45.756 143.639,45.839 142.909,45.832C141.082,45.811 140.721,44.945 140.661,43.59C140.578,41.736 140.64,39.875 140.64,37.952L139.242,37.952L139.242,36.107C139.695,36.137 140.137,36.167 140.579,36.196C140.638,35.509 140.7,34.804 140.76,34.099C140.811,33.503 141.261,33.313 141.732,33.251C143.014,33.082 143.041,33.124 143.041,34.403C143.041,34.882 143.009,35.366 143.062,35.84C143.077,35.975 143.335,36.179 143.489,36.185C144,36.204 144.515,36.12 145.027,36.14C145.169,36.145 145.405,36.364 145.422,36.504C145.473,36.952 145.441,37.41 145.441,37.907L143.042,37.907L143.042,39.601C143.042,40.7 143.041,41.799 143.043,42.898C143.044,43.718 143.244,43.919 144.046,43.92C145.246,43.921 145.48,44.231 145.204,45.446C145.185,45.52 145.182,45.597 145.167,45.711Z" style="fill:white;"/>
            <path d="M255.36,55.716C253.71,55.591 253.71,55.591 253.8,54.327C253.836,53.827 253.995,53.782 255.36,53.92L255.36,52.328C255.361,51.392 255.748,51.009 256.697,51C256.991,50.998 257.286,51 257.64,51C257.64,51.868 257.658,52.683 257.633,53.495C257.618,53.957 257.849,54.035 258.229,53.995C258.797,53.934 259.366,53.885 260.049,53.821L260.049,55.682L257.64,55.682C257.64,57.134 257.631,58.546 257.645,59.957C257.649,60.347 257.707,60.739 257.762,61.126C257.824,61.561 258.119,61.695 258.525,61.683C258.922,61.671 259.32,61.681 259.692,61.681C259.74,61.744 259.777,61.77 259.783,61.802C260.099,63.5 260.021,63.601 258.277,63.595C257.787,63.593 257.287,63.575 256.809,63.479C255.892,63.293 255.364,62.609 255.361,61.677C255.356,59.919 255.36,58.16 255.36,56.402L255.36,55.716Z" style="fill:white;"/>
            <path d="M226.878,36.151C226.937,36.482 227.026,36.771 227.029,37.061C227.032,37.329 226.943,37.598 226.887,37.903L224.57,37.903C224.551,38.088 224.523,38.239 224.523,38.39C224.52,39.869 224.518,41.349 224.522,42.828C224.525,43.713 224.732,43.918 225.598,43.92C225.935,43.921 226.273,43.92 226.675,43.92C226.719,44.398 226.787,44.841 226.785,45.286C226.785,45.43 226.605,45.693 226.5,45.697C225.559,45.733 224.607,45.81 223.677,45.702C222.764,45.597 222.244,44.842 222.242,43.902C222.238,42.122 222.241,40.343 222.241,38.564L222.241,37.92C221.892,37.92 221.595,37.898 221.304,37.925C220.846,37.968 220.608,37.821 220.679,37.326C220.691,37.248 220.68,37.166 220.68,37.086C220.68,36.096 220.831,35.935 221.785,36.154C222.194,36.249 222.237,36.107 222.239,35.801C222.242,35.361 222.239,34.921 222.24,34.481C222.244,33.695 222.641,33.273 223.423,33.241C223.76,33.227 224.098,33.239 224.52,33.239C224.52,34.059 224.532,34.851 224.516,35.642C224.506,36.136 224.619,36.302 225.181,36.175C225.709,36.057 226.287,36.151 226.878,36.151Z" style="fill:white;"/>
            <path d="M268.145,43.934C268.184,44.06 268.228,44.15 268.236,44.244C268.27,44.617 268.33,44.992 268.311,45.363C268.28,45.988 267.697,45.739 267.421,45.776C266.533,45.895 265.546,46.072 264.901,45.21C264.616,44.829 264.388,44.297 264.383,43.832C264.342,39.938 264.365,36.045 264.353,32.151C264.352,31.72 264.467,31.557 264.925,31.551C266.276,31.533 266.744,31.635 266.755,33.37C266.775,36.525 266.76,39.68 266.76,42.835C266.76,43.803 266.869,43.91 267.86,43.923C267.939,43.922 268.019,43.928 268.145,43.934Z" style="fill:white;"/>
            <path d="M163.983,31.585C165.803,31.468 166.258,31.555 166.215,33.621C166.155,36.459 166.195,39.299 166.205,42.138C166.206,42.509 166.318,42.881 166.308,43.25C166.293,43.768 166.597,43.951 167.009,43.904C167.576,43.841 167.812,44.089 167.855,44.598C167.88,44.895 167.968,45.257 167.836,45.474C167.73,45.648 167.339,45.702 167.07,45.714C166.43,45.744 165.769,45.812 165.15,45.691C164.421,45.549 163.93,44.852 163.928,44.088C163.916,39.969 163.926,35.851 163.93,31.732C163.93,31.698 163.955,31.662 163.983,31.585Z" style="fill:white;"/>
            <path d="M112.68,50.28L112.68,50.83C112.68,54.863 112.67,58.896 112.692,62.929C112.695,63.48 112.476,63.6 111.995,63.606C110.16,63.628 110.16,63.637 110.16,61.803L110.16,51.201C110.16,50.28 110.16,50.28 111.111,50.28L112.68,50.28Z" style="fill:white;"/>
            <path d="M153.107,36.214C152.946,36.879 152.815,37.543 152.604,38.181C152.562,38.306 152.208,38.391 152,38.389C151.292,38.378 150.576,38.33 150.147,39.045C149.974,39.334 149.783,39.671 149.776,39.989C149.74,41.728 149.745,43.468 149.768,45.206C149.774,45.675 149.598,45.829 149.155,45.845C147.359,45.911 147.359,45.919 147.359,44.118C147.359,42.599 147.396,41.078 147.343,39.561C147.318,38.833 147.273,38.089 146.764,37.443C146.636,37.28 146.848,36.761 147.024,36.481C147.143,36.291 147.484,36.108 147.702,36.133C148.592,36.235 149.079,36.875 149.453,37.647C150.217,36.203 151.395,35.768 153.107,36.214Z" style="fill:white;"/>
            <path d="M172.439,45.739L169.92,45.739L169.92,39C169.92,38.148 169.758,37.974 168.884,37.893C168.871,37.821 168.826,37.735 168.847,37.67C169.008,37.165 168.431,36.359 169.173,36.157C170.662,35.75 171.835,36.199 172.21,37.148C172.343,37.485 172.428,37.866 172.43,38.227C172.449,40.699 172.439,43.171 172.439,45.739Z" style="fill:white;"/>
            <path d="M140.789,55.638C140.68,53.88 140.683,53.937 142.36,53.861C143.495,53.809 144.374,54.551 144.365,55.867C144.349,58.224 144.347,60.581 144.371,62.938C144.376,63.435 144.199,63.595 143.726,63.606C141.96,63.65 141.961,63.66 141.961,61.911C141.961,60.253 141.962,58.595 141.96,56.937C141.958,56.013 141.724,55.751 140.789,55.638Z" style="fill:white;"/>
            <path d="M228.27,37.88C228.222,37.647 228.137,37.402 228.126,37.155C228.088,36.256 228.229,36.162 229.107,36.112C231.219,35.993 231.809,36.608 231.735,38.753C231.662,40.889 231.701,43.03 231.732,45.168C231.74,45.719 231.516,45.841 231.034,45.847C229.319,45.866 229.319,45.876 229.319,44.16L229.319,39.003C229.32,38.152 229.165,37.982 228.27,37.88Z" style="fill:white;"/>
            <path d="M261.315,55.637C261.315,55.182 261.257,54.748 261.341,54.342C261.379,54.159 261.683,53.929 261.891,53.902C262.382,53.838 262.889,53.853 263.386,53.888C264.185,53.944 264.832,54.632 264.836,55.448C264.849,57.984 264.834,60.519 264.848,63.055C264.85,63.448 264.674,63.569 264.33,63.602C262.447,63.781 262.44,63.777 262.44,61.918L262.44,56.767C262.44,55.911 262.283,55.739 261.315,55.637Z" style="fill:white;"/>
            <path d="M87.333,75.715C85.531,76.875 83.73,78.039 81.921,79.187C81.826,79.248 81.652,79.184 81.476,79.176C81.887,77.914 82.797,77.069 83.764,76.341C85.295,75.19 86.935,74.183 88.494,73.067C89.165,72.587 89.75,71.985 90.379,71.443C90.687,71.177 91.004,70.921 91.368,70.617C91.578,71.347 91.218,71.878 90.975,72.401C89.852,74.823 88.035,76.615 85.76,77.957C85.089,78.353 84.37,78.671 83.66,78.999C83.385,79.125 83.076,79.177 82.783,79.263C82.762,79.218 82.741,79.174 82.72,79.129C84.281,78.007 85.841,76.884 87.402,75.762C87.379,75.746 87.356,75.73 87.333,75.715Z" style="fill:white;"/>
            <path d="M15.174,70.616C15.58,70.955 15.955,71.2 16.246,71.523C17.4,72.802 18.939,73.55 20.303,74.54C21.59,75.475 22.834,76.477 24.03,77.526C24.496,77.935 24.778,78.553 25.143,79.077C25.099,79.139 25.054,79.2 25.01,79.261C24.735,79.162 24.438,79.101 24.189,78.958C22.203,77.81 20.297,76.544 18.559,75.037C20.064,76.708 22.051,77.764 23.826,79.111C21.256,79.701 14.855,73.486 15.174,70.616Z" style="fill:white;"/>
            <path d="M70.377,90.654C72.255,90.253 74.057,89.868 75.859,89.483C75.848,89.423 75.837,89.363 75.825,89.303C73.598,89.502 71.458,90.357 69.207,90.372C69.181,90.301 69.156,90.23 69.13,90.16C69.371,89.986 69.596,89.785 69.854,89.643C71.676,88.641 73.618,88.01 75.695,87.845C76.626,87.771 77.561,87.728 78.494,87.736C78.884,87.74 79.272,87.914 79.698,88.02C77.125,91.611 72.009,92.162 70.377,90.654Z" style="fill:white;"/>
            <path d="M77.205,85.038C77.799,84.714 78.394,84.389 78.989,84.065C78.985,84.047 78.982,84.03 78.978,84.013C78.484,84.144 77.99,84.276 77.352,84.446C78.42,82.958 79.791,82.188 81.278,81.612C82.767,81.035 84.281,80.524 85.789,79.998C85.91,79.956 86.069,80.022 86.21,80.039C86.193,80.163 86.207,80.302 86.154,80.408C85.507,81.7 84.572,82.782 83.483,83.695C82.716,84.339 81.849,84.938 80.925,85.301C79.72,85.776 78.443,85.464 77.21,85.227C77.208,85.163 77.207,85.101 77.205,85.038Z" style="fill:white;"/>
            <path d="M26.906,88.111C28.55,87.011 35.342,88.213 37.437,90.242C36.216,90.639 35.146,90.029 34.039,89.87C32.923,89.71 31.818,89.473 30.708,89.269C30.694,89.333 30.681,89.398 30.667,89.462C32.48,89.862 34.292,90.263 36.176,90.679C34.238,92.242 29.214,91.379 26.906,88.111Z" style="fill:white;"/>
            <path d="M29.062,84.414C28.569,84.277 28.075,84.141 27.582,84.004C27.573,84.026 27.564,84.048 27.555,84.07C28.128,84.381 28.701,84.692 29.404,85.073C29.116,85.221 28.934,85.392 28.743,85.401C27.923,85.443 27.1,85.441 26.279,85.447C25.399,85.454 24.719,84.984 24.051,84.492C22.572,83.403 21.324,82.105 20.439,80.482C20.358,80.334 20.315,80.164 20.239,79.963C20.394,79.945 20.505,79.896 20.581,79.928C22.926,80.919 25.52,81.324 27.621,82.884C28.158,83.283 28.627,83.774 29.128,84.222C29.106,84.287 29.084,84.351 29.062,84.414Z" style="fill:white;"/>
            <path d="M44.177,89.996C43.835,89.836 43.492,89.675 43.15,89.515C43.137,89.538 43.125,89.562 43.112,89.585C43.737,90.072 44.362,90.559 44.987,91.046C44.966,91.122 44.944,91.198 44.923,91.274C44.468,91.247 43.983,91.313 43.562,91.178C40.066,90.052 37.591,87.83 36.349,84.321C36.317,84.23 36.254,84.142 36.248,84.05C36.234,83.792 36.244,83.532 36.244,83.066C39.037,85.353 42.03,87.179 44.318,89.845C44.271,89.896 44.224,89.946 44.177,89.996Z" style="fill:white;"/>
            <path d="M45.561,92.682C44.185,93.703 42.69,93.724 41.105,93.727C42.236,94.044 43.093,93.989 44.928,93.513C44.933,93.888 44.713,94.173 44.232,94.452C43.537,94.855 42.795,95.013 41.989,95.055C40.042,95.158 38.209,94.598 36.349,94.186C36.146,94.141 35.966,93.998 35.721,93.871C36.613,92.79 37.687,92.077 39.052,91.797C40.388,91.522 41.661,91.953 42.958,92.106C43.52,92.172 44.077,92.284 44.631,92.397C44.91,92.454 45.178,92.563 45.561,92.682Z" style="fill:white;"/>
            <path d="M61.444,93.452C62.815,93.771 64.02,94.155 65.302,93.75C63.827,93.653 62.315,93.788 61.097,92.55C62.051,92.38 63.004,92.206 63.959,92.042C64.673,91.919 65.386,91.748 66.105,91.704C67.223,91.637 68.304,91.87 69.251,92.49C69.819,92.863 70.324,93.332 70.857,93.758C70.845,93.837 70.834,93.916 70.822,93.995C69.909,94.223 69.003,94.486 68.081,94.67C67.083,94.868 66.069,95.128 65.065,95.114C63.908,95.097 62.691,94.989 61.812,94.028C61.696,93.898 61.621,93.73 61.444,93.452Z" style="fill:white;"/>
            <path d="M51.233,91.173C50.461,90.827 49.69,90.481 48.918,90.135C48.904,90.16 48.89,90.185 48.876,90.21C49.662,90.664 50.447,91.117 51.354,91.641C50.467,91.956 49.764,91.796 49.102,91.505C47.032,90.594 45.289,89.243 43.862,87.486C43.464,86.997 43.061,86.511 42.649,86.034C42.355,85.695 42.451,85.554 42.855,85.42C43.653,85.155 44.376,85.399 45.069,85.719C46.51,86.385 47.748,87.36 48.895,88.444C49.746,89.249 50.556,90.096 51.384,90.924C51.333,91.007 51.283,91.09 51.233,91.173Z" style="fill:white;"/>
            <path d="M55.344,91.563C56.046,91.154 56.748,90.746 57.45,90.337C57.439,90.312 57.429,90.286 57.417,90.261C56.713,90.564 56.01,90.866 55.307,91.169C55.272,91.112 55.238,91.056 55.203,91C55.636,90.495 56.028,89.946 56.51,89.494C57.416,88.644 58.343,87.808 59.321,87.042C60.275,86.294 61.302,85.641 62.52,85.381C62.673,85.349 62.843,85.296 62.986,85.33C63.352,85.418 63.708,85.551 64.069,85.666C63.914,85.929 63.787,86.213 63.6,86.452C62.445,87.931 61.136,89.267 59.589,90.326C58.464,91.096 57.288,91.85 55.823,91.799C55.676,91.794 55.529,91.76 55.382,91.739C55.368,91.68 55.356,91.621 55.344,91.563Z" style="fill:white;"/>
            <path d="M70.302,83.058C70.427,84.644 69.683,85.738 68.97,86.802C67.879,88.43 66.419,89.689 64.65,90.546C63.988,90.867 63.27,91.087 62.559,91.285C62.279,91.363 61.947,91.255 61.464,91.218C62.973,89.674 64.867,88.888 66.296,87.499C65.003,88.363 63.711,89.228 62.418,90.091C62.355,90.005 62.291,89.919 62.227,89.833C64.526,87.173 67.516,85.333 70.302,83.058Z" style="fill:white;"/>
            <path d="M87.578,70.798C88.245,69.838 88.909,68.876 89.582,67.92C90.254,66.964 90.935,66.015 91.613,65.063C91.553,65.02 91.494,64.977 91.434,64.933C90.059,66.861 88.684,68.789 87.252,70.796C86.914,70.074 87.357,69.618 87.541,69.151C88.39,66.996 89.643,65.077 91.172,63.347C91.714,62.734 92.348,62.196 92.976,61.667C93.214,61.467 93.556,61.391 93.889,61.24C94.133,62.345 93.745,63.238 93.346,64.102C92.534,65.857 91.507,67.47 90.185,68.907C89.441,69.715 88.612,70.358 87.578,70.798Z" style="fill:white;"/>
            <path d="M12.654,61.327C13.324,61.306 13.761,61.767 14.198,62.154C15.914,63.677 17.207,65.529 18.234,67.567C18.636,68.366 18.977,69.196 19.329,70.019C19.41,70.207 19.421,70.425 19.465,70.629C19.398,70.667 19.331,70.705 19.264,70.743C17.842,68.759 16.42,66.774 14.998,64.79C14.945,64.828 14.892,64.865 14.838,64.902C16.19,66.829 17.541,68.756 18.957,70.775C16.663,70.331 12.041,63.768 12.654,61.327Z" style="fill:white;"/>
            <path d="M76.309,77.409C76.922,78.247 76.646,79.02 76.514,79.751C76.143,81.789 75.264,83.622 74.004,85.247C73.403,86.021 72.639,86.67 71.927,87.352C71.806,87.468 71.573,87.466 71.307,87.544C71.447,87.246 71.545,87.039 71.678,86.756C71.36,86.964 71.125,87.117 70.89,87.27C70.843,87.231 70.796,87.193 70.749,87.154C71.95,83.576 73.948,80.448 76.309,77.409Z" style="fill:white;"/>
            <path d="M30.26,77.413C32.575,80.483 34.614,83.577 35.793,87.155C35.749,87.194 35.705,87.233 35.661,87.271C35.388,87.078 35.116,86.885 34.743,86.621C34.94,86.953 35.083,87.192 35.239,87.455C34.55,87.595 34.221,87.044 33.864,86.698C31.782,84.675 30.409,82.264 29.986,79.352C29.894,78.712 29.712,78.088 30.26,77.413Z" style="fill:white;"/>
            <path d="M79.304,79.516C79.448,78.38 79.593,77.245 79.737,76.109C79.396,77.699 79.342,79.358 78.122,80.689C78.122,79.607 78.106,78.526 78.126,77.445C78.143,76.53 78.158,75.612 78.25,74.704C78.412,73.118 78.716,71.567 79.77,70.283C79.863,70.17 79.993,70.086 80.105,69.989C80.204,70.129 80.359,70.256 80.393,70.41C80.61,71.4 80.899,72.388 80.977,73.391C81.101,74.987 81.054,76.597 80.386,78.1C80.154,78.623 79.815,79.099 79.525,79.597C79.452,79.569 79.378,79.543 79.304,79.516Z" style="fill:white;"/>
            <path d="M28.481,80.769C27.6,80.077 27.261,79.007 26.854,76.233C26.902,76.78 26.935,77.329 27.004,77.873C27.074,78.422 27.18,78.966 27.285,79.603C25.316,78.33 25.042,72.809 26.358,69.952C27.026,70.297 27.307,70.944 27.554,71.569C28.029,72.776 28.321,74.034 28.32,75.344C28.319,76.545 28.304,77.745 28.326,78.945C28.337,79.515 28.421,80.083 28.481,80.769Z" style="fill:white;"/>
            <path d="M16.572,43.042C17.844,44.852 18.103,46.81 17.762,48.881C17.537,50.249 17.283,51.612 17.036,52.977C17.019,53.067 16.96,53.148 16.855,53.377C16.13,51.687 16.025,49.997 15.869,48.318C15.804,48.33 15.738,48.342 15.672,48.354C15.855,49.766 16.038,51.178 16.231,52.664C14.259,50.748 15.014,45.35 16.572,43.042Z" style="fill:white;"/>
            <path d="M89.891,61.986C88.69,59.938 90.882,53.198 93.141,52.095C94.168,53.379 92.667,59.706 90.648,61.219C91.111,59.545 91.542,57.989 91.973,56.432C91.174,58.222 91.023,60.239 89.891,61.986Z" style="fill:white;"/>
            <path d="M90.025,43.055C91.525,45.647 92.257,50.422 90.32,52.585C90.43,51.785 90.582,50.987 90.637,50.183C90.692,49.384 90.649,48.579 90.624,47.771C90.671,49.649 90.387,51.472 89.8,53.243C89.74,53.25 89.681,53.257 89.621,53.264C89.47,52.743 89.263,52.232 89.176,51.701C88.906,50.05 88.543,48.402 88.684,46.711C88.795,45.382 89.08,44.106 90.025,43.055Z" style="fill:white;"/>
            <path d="M13.432,52.069C16.253,54.014 17.703,60.522 16.641,61.956C15.524,60.287 15.415,58.282 14.579,56.538C15.004,58.036 15.429,59.535 15.874,61.106C14.05,60.101 12.319,53.433 13.432,52.069Z" style="fill:white;"/>
            <path d="M83.898,72.933C83.788,71.536 83.679,70.138 83.569,68.74C83.515,68.742 83.461,68.744 83.406,68.747C83.614,70.597 83.923,72.451 83.267,74.262C83.201,74.273 83.134,74.285 83.067,74.296C82.939,73.753 82.803,73.212 82.685,72.667C82.454,71.599 82.183,70.537 82.018,69.458C81.774,67.858 81.57,66.243 82.323,64.704C82.416,64.514 82.607,64.371 82.753,64.206C82.931,64.377 83.191,64.517 83.274,64.726C83.723,65.865 84.211,67 84.526,68.178C84.877,69.488 84.997,70.843 84.478,72.163C84.368,72.444 84.224,72.713 84.096,72.988C84.03,72.968 83.964,72.951 83.898,72.933Z" style="fill:white;"/>
            <path d="M22.982,68.648C22.864,70.071 22.746,71.495 22.618,73.042C22.115,72.518 21.925,71.955 21.842,71.344C21.527,69.018 22.159,66.888 23.194,64.843C23.256,64.721 23.334,64.607 23.411,64.494C23.49,64.378 23.577,64.267 23.751,64.03C24.002,64.428 24.237,64.691 24.352,64.999C25.012,66.759 24.726,68.527 24.356,70.293C24.112,71.459 23.88,72.628 23.636,73.794C23.602,73.959 23.53,74.116 23.434,74.397C22.765,73.445 22.912,72.47 22.931,71.538C22.95,70.577 23.058,69.617 23.127,68.656C23.079,68.653 23.03,68.65 22.982,68.648Z" style="fill:white;"/>
            <path d="M18.447,52.484C18.512,51.918 18.487,51.323 18.659,50.792C19.28,48.876 20.289,47.162 21.548,45.594C21.78,45.304 22.019,45.021 22.256,44.734C24.078,46.336 22.085,51.531 19.206,52.685C19.231,52.006 19.563,51.491 19.881,50.967C20.19,50.457 20.485,49.938 20.786,49.424C20.733,49.392 20.68,49.36 20.626,49.328C19.988,50.406 19.35,51.484 18.711,52.563C18.623,52.536 18.535,52.51 18.447,52.484Z" style="fill:white;"/>
            <path d="M87.802,52.522C87.174,51.457 86.547,50.393 85.919,49.328C85.868,49.357 85.817,49.387 85.766,49.416C86.063,49.93 86.375,50.436 86.652,50.96C86.93,51.487 87.173,52.033 87.465,52.641C84.68,52.126 82.568,46.844 84.25,44.704C84.641,45.179 85.05,45.621 85.397,46.107C86.526,47.69 87.516,49.352 88.013,51.252C88.116,51.643 88.028,52.083 88.028,52.5C87.953,52.506 87.877,52.514 87.802,52.522Z" style="fill:white;"/>
            <path d="M22.029,58.862C22.58,61.922 21.304,64.546 20.617,67.274C20.511,67.264 20.405,67.253 20.299,67.243C20.333,66.484 20.33,65.722 20.41,64.968C20.492,64.194 20.655,63.429 20.783,62.66C20.707,62.65 20.631,62.639 20.555,62.63C20.347,64.498 20.138,66.366 19.924,68.28C17.571,65.639 19.661,60.026 22.029,58.862Z" style="fill:white;"/>
            <path d="M86.111,67.258C85.022,65.969 83.992,60.176 84.65,58.92C85.391,59.167 85.771,59.798 86.159,60.391C86.998,61.673 87.481,63.074 87.618,64.62C87.728,65.86 87.471,66.975 86.877,68.039C86.832,68.12 86.762,68.186 86.578,68.414C86.473,67.268 86.396,66.28 86.286,65.295C86.177,64.312 86.035,63.333 85.811,62.364C85.867,63.998 86.531,65.58 86.111,67.258Z" style="fill:white;"/>
            <path d="M52.638,92.685C52.133,93.511 51.367,93.972 50.549,94.36C49.769,94.731 48.982,95.086 48.197,95.448C48.222,95.504 48.247,95.559 48.273,95.615C49.645,94.995 51.018,94.375 52.527,93.694C52.391,94.023 52.357,94.329 52.186,94.484C51.123,95.451 49.999,96.327 48.535,96.625C47.218,96.893 45.913,97.061 44.523,96.376C46.924,94.304 49.496,92.884 52.638,92.685Z" style="fill:white;"/>
            <path d="M61.974,96.461C59.748,97.259 57.714,96.843 55.848,95.685C55.152,95.252 54.261,94.812 54.055,93.699C55.421,94.334 56.674,94.917 57.928,95.5C57.96,95.437 57.992,95.373 58.024,95.309C56.542,94.629 54.959,94.107 53.871,92.775C55.275,92.211 60.609,94.61 61.974,96.461Z" style="fill:white;"/>
            <path d="M18.624,60.295C18.777,59.526 18.88,58.743 19.098,57.992C19.316,57.237 19.648,56.514 19.896,55.766C18.851,57.199 18.78,58.974 18.187,60.683C17.828,60.022 17.777,59.462 17.852,58.805C17.971,57.754 18.212,56.764 18.715,55.843C19.349,54.681 20.076,53.586 21.182,52.81C21.415,52.646 21.701,52.556 22.071,52.379C22.071,52.857 22.155,53.279 22.057,53.654C21.473,55.898 20.594,58.018 19.295,59.952C19.175,60.131 19.099,60.34 19.003,60.535C18.876,60.456 18.75,60.375 18.624,60.295Z" style="fill:white;"/>
            <path d="M84.518,52.448C87.137,53.361 89.584,58.197 88.383,60.619C87.698,59.032 87.752,57.245 86.628,55.703C87.126,57.329 87.94,58.71 87.827,60.349C86.488,59.656 83.983,53.672 84.518,52.448Z" style="fill:white;"/>
            <path d="M120.337,80.881L116.223,80.881C116.155,81.588 116.6,82.206 117.356,82.495C117.991,82.738 118.834,82.451 119.268,81.904C119.443,81.684 119.727,81.55 120.057,81.307C120.095,82.384 118.86,83.285 117.701,83.176C116.419,83.055 115.418,82.032 115.469,80.626C115.515,79.344 116.214,78.345 117.727,78.235C119.458,78.108 120.298,79.367 120.337,80.881ZM116.164,80.27L119.612,80.27C119.341,79.378 118.773,78.87 118.078,78.841C117.039,78.796 116.608,79.106 116.164,80.27Z" style="fill:white;"/>
            <path d="M185.271,81.449C184.744,83.107 183.547,83.384 182.44,83.105C181.139,82.777 180.357,81.293 180.758,79.99C181.167,78.66 182.187,78.018 183.717,78.26C184.823,78.434 185.618,79.655 185.461,80.878L181.344,80.878C181.444,81.754 181.863,82.363 182.667,82.538C183.463,82.711 184.125,82.412 184.591,81.682C184.693,81.523 185.039,81.522 185.271,81.449ZM181.469,80.247L184.768,80.247C184.575,79.045 183.592,78.75 182.744,78.844C182.072,78.918 181.478,79.57 181.469,80.247Z" style="fill:white;"/>
            <path d="M110.173,80.393C110.008,80.792 109.776,81.178 109.698,81.594C109.615,82.036 109.679,82.505 109.679,83.006C109.478,83.017 109.312,83.026 109.112,83.036L109.112,76.828L109.664,76.828L109.664,80.233C110.253,79.546 110.743,78.995 111.211,78.426C111.609,77.942 111.948,77.404 112.384,76.958C112.549,76.79 112.912,76.815 113.243,76.876C112.432,77.858 111.622,78.84 110.789,79.85C111.577,80.874 112.369,81.904 113.172,82.95C112.554,83.244 112.26,82.874 111.963,82.468C111.454,81.772 110.929,81.088 110.411,80.398C110.332,80.396 110.252,80.395 110.173,80.393Z" style="fill:white;"/>
            <path d="M151.648,81.286C152.06,81.222 152.341,81.147 152.422,81.684C152.507,82.249 152.947,82.455 153.52,82.448C154.052,82.442 154.436,82.215 154.532,81.722C154.63,81.222 154.647,80.673 154.044,80.392C153.565,80.169 153.081,79.956 152.611,79.714C151.966,79.382 151.801,78.944 151.922,77.985C151.993,77.411 152.432,76.93 153.003,76.798C154.228,76.516 154.836,76.95 155.117,78.332L154.528,78.332C154.269,77.485 154.075,77.285 153.32,77.428C153.026,77.484 152.682,77.821 152.561,78.113C152.414,78.467 152.482,78.908 152.95,79.104C153.418,79.301 153.894,79.479 154.354,79.691C155.038,80.007 155.422,80.79 155.267,81.503C155.01,82.687 154.475,83.161 153.403,83.158C152.555,83.156 152.003,82.688 151.799,81.806C151.764,81.658 151.713,81.511 151.648,81.286Z" style="fill:white;"/>
            <path d="M141.599,83.16C140.367,83.311 139.159,81.995 139.172,80.678C139.184,79.447 140.35,78.18 141.631,78.196C142.766,78.21 144.086,79.371 144.015,80.74C143.944,82.134 142.983,83.16 141.599,83.16ZM141.598,78.84C140.8,78.695 139.887,79.509 139.839,80.704C139.799,81.677 140.668,82.538 141.59,82.566C142.535,82.595 143.403,81.759 143.363,80.627C143.326,79.566 142.668,78.797 141.598,78.84Z" style="fill:white;"/>
            <path d="M161.64,78.386L162.32,78.386L162.32,83.07C162.055,83.008 161.814,82.952 161.527,82.884C161.125,82.963 160.621,83.126 160.112,83.146C159.114,83.185 158.467,82.605 158.414,81.597C158.359,80.545 158.402,79.489 158.402,78.398L158.947,78.398C158.964,78.457 158.994,78.512 158.994,78.568C158.998,79.406 158.939,80.249 159.015,81.08C159.111,82.118 159.213,82.578 160.444,82.557C161.082,82.546 161.631,81.978 161.637,81.328C161.647,80.356 161.64,79.383 161.64,78.386Z" style="fill:white;"/>
            <path d="M124.609,84.598C124.446,84.598 124.307,84.602 124.168,84.597C124.11,84.595 124.053,84.574 123.999,84.561C123.993,84.535 123.978,84.51 123.984,84.499C124.841,83.232 124.223,82.079 123.731,80.902C123.388,80.082 123.1,79.24 122.789,78.415C123.313,78.234 123.55,78.434 123.706,78.892C124.001,79.759 124.347,80.608 124.672,81.465C124.736,81.634 124.802,81.803 124.91,82.083C125.35,80.958 125.743,79.968 126.123,78.975C126.29,78.538 126.483,78.174 127.099,78.444C126.278,80.473 125.453,82.511 124.609,84.598Z" style="fill:white;"/>
            <path d="M177.67,79.771C177.239,79.854 176.988,79.741 176.703,79.378C176.107,78.619 174.84,78.607 174.176,79.434C173.749,79.964 173.598,80.927 173.907,81.548C174.25,82.238 174.899,82.661 175.623,82.541C176.004,82.478 176.368,82.244 176.713,82.042C176.999,81.875 177.245,81.64 177.622,81.347C177.541,82.371 176.655,83.093 175.755,83.169C174.114,83.309 173.231,82.208 173.046,81.047C172.853,79.832 173.692,78.587 174.888,78.269C176.053,77.959 177.17,78.55 177.67,79.771Z" style="fill:white;"/>
            <path d="M169.978,81.632C169.597,82.888 168.59,83.316 167.395,83.143C166.231,82.974 165.559,82.207 165.378,80.873C165.257,79.979 165.848,78.739 166.951,78.362C168.222,77.927 169.153,78.324 169.985,79.84C169.727,79.76 169.348,79.76 169.233,79.586C168.78,78.903 168.134,78.72 167.425,78.866C166.755,79.004 166.277,79.477 166.132,80.179C165.98,80.91 166.079,81.594 166.671,82.133C167.234,82.645 167.876,82.674 168.541,82.405C168.751,82.32 169,82.17 169.092,81.982C169.298,81.558 169.607,81.555 169.978,81.632Z" style="fill:white;"/>
            <path d="M196.969,79.531L196.368,79.531C196.014,78.847 195.616,78.644 195.28,79.007C195.116,79.183 194.959,79.543 195.034,79.719C195.136,79.957 195.438,80.187 195.701,80.263C196.663,80.543 197.047,80.954 197.039,81.834C197.033,82.538 196.571,83.073 195.873,83.155C194.897,83.271 194.483,82.917 194.182,82.2C194.101,82.008 194.166,81.557 194.26,81.527C194.55,81.435 194.729,81.636 194.832,81.955C194.961,82.352 195.257,82.684 195.719,82.538C195.953,82.464 196.216,82.209 196.296,81.977C196.454,81.52 196.217,81.184 195.761,81.008C195.489,80.904 195.221,80.785 194.955,80.666C194.41,80.422 194.207,79.981 194.283,79.414C194.36,78.839 194.693,78.428 195.24,78.258C195.835,78.073 196.503,78.312 196.761,78.779C196.878,78.986 196.895,79.247 196.969,79.531Z" style="fill:white;"/>
            <path d="M190.987,79.661C190.804,79.519 190.628,79.368 190.436,79.238C190.225,79.095 189.99,78.859 189.783,78.876C189.586,78.893 189.295,79.163 189.259,79.36C189.217,79.589 189.342,79.933 189.518,80.093C189.717,80.275 190.051,80.307 190.326,80.407C191.023,80.661 191.422,81.354 191.277,82.056C191.121,82.813 190.414,83.251 189.5,83.159C188.953,83.104 188.301,82.403 188.3,81.826C188.3,81.715 188.49,81.497 188.538,81.512C188.705,81.563 188.88,81.666 188.993,81.799C189.16,81.994 189.231,82.29 189.423,82.44C189.766,82.708 190.294,82.557 190.502,82.195C190.691,81.866 190.539,81.312 190.175,81.12C189.83,80.938 189.451,80.819 189.11,80.631C188.573,80.336 188.354,79.655 188.578,79.086C188.828,78.453 189.572,78.09 190.302,78.245C190.819,78.355 191.166,78.881 190.987,79.661Z" style="fill:white;"/>
            <path d="M263.319,50.04C264.404,50.04 264.761,50.311 264.71,51.237C264.646,52.408 264.554,52.437 263.303,52.543C262.229,52.634 261.828,52.206 261.841,51.223C261.853,50.286 262.16,50.041 263.319,50.04Z" style="fill:white;"/>
            <path d="M230.222,32.28C231.326,32.24 231.597,32.644 231.599,33.49C231.601,34.457 231.233,34.793 230.18,34.799C229.128,34.805 228.741,34.463 228.721,33.507C228.702,32.61 229.105,32.28 230.222,32.28Z" style="fill:white;"/>
            <path d="M144.12,51.26C144.135,52.525 143.887,52.494 142.685,52.528C141.565,52.559 141.361,52.397 141.351,51.275C141.343,50.337 141.577,50.034 142.795,50.04C143.921,50.045 144.121,50.225 144.12,51.26Z" style="fill:white;"/>
            <path d="M172.2,33.524C172.198,34.561 171.927,34.722 170.742,34.787C169.742,34.842 169.301,34.399 169.325,33.523C169.349,32.61 169.733,32.274 170.773,32.281C172.001,32.289 172.165,32.503 172.2,33.524Z" style="fill:white;"/>
            <path d="M135.725,78.98L135.725,83L135.005,83L135.005,78.982C134.714,78.968 134.482,78.957 134.202,78.944C134.186,78.772 134.171,78.606 134.153,78.399C134.437,78.375 134.687,78.354 134.879,78.338C135.307,77.882 134.458,76.876 135.697,76.773L135.697,78.319C136.001,78.345 136.249,78.367 136.527,78.391L136.527,78.938C136.274,78.951 136.039,78.964 135.725,78.98Z" style="fill:white;"/>
            <path d="M44.4,17.272C44.402,17.726 43.99,18.129 43.534,18.119C42.998,18.108 42.709,17.801 42.72,17.255C42.73,16.758 43.064,16.423 43.527,16.444C44.036,16.469 44.398,16.813 44.4,17.272Z" style="fill:white;"/>
            <path d="M53.195,12.6C53.69,12.593 54.103,12.981 54.119,13.469C54.132,13.852 53.7,14.254 53.252,14.275C52.814,14.295 52.443,13.919 52.44,13.45C52.436,12.912 52.707,12.607 53.195,12.6Z" style="fill:white;"/>
            <path d="M59.52,16.964C59.524,17.42 59.164,17.833 58.752,17.843C58.285,17.855 57.83,17.414 57.84,16.96C57.851,16.481 58.157,16.21 58.698,16.199C59.232,16.189 59.515,16.452 59.52,16.964Z" style="fill:white;"/>
            <path d="M47.823,16.2C48.371,16.201 48.609,16.45 48.6,17.01C48.593,17.438 48.204,17.85 47.792,17.866C47.449,17.879 46.922,17.343 46.92,16.978C46.918,16.477 47.241,16.198 47.823,16.2Z" style="fill:white;"/>
            <path d="M62.969,18.119C62.491,18.136 62.186,17.83 62.16,17.311C62.134,16.786 62.389,16.485 62.894,16.447C63.333,16.414 63.812,16.819 63.838,17.245C63.863,17.665 63.427,18.104 62.969,18.119Z" style="fill:white;"/>
            <path d="M36.578,49.004C37.405,46.559 38.189,44.277 38.945,41.987C39.396,40.619 39.812,39.239 40.223,37.86C40.462,37.058 41.173,37.281 41.683,37.229C42.382,37.157 43.102,37.28 43.732,37.315C44.314,39.002 44.904,40.635 45.439,42.287C46.039,44.14 46.587,46.009 47.161,47.87C47.247,48.149 47.378,48.417 47.432,48.702C47.453,48.811 47.32,49.056 47.247,49.059C46.646,49.091 46.037,49.137 45.442,49.071C44.68,48.987 44.11,48.303 44.04,47.526C43.965,46.701 43.811,46.553 42.974,46.564C42.12,46.575 41.264,46.652 40.413,46.604C40.05,46.584 40.029,46.759 39.965,46.972C39.798,47.531 39.624,48.088 39.488,48.655C39.409,48.984 39.251,49.105 38.914,49.087C38.15,49.043 37.384,49.03 36.578,49.004ZM41.96,39.991C41.57,41.512 41.225,42.858 40.861,44.278L43.14,44.278C42.76,42.894 42.381,41.521 41.96,39.991Z" style="fill:white;"/>
            <path d="M61.83,61.68L61.83,64L65.544,64L65.544,66.339L61.848,66.339L61.848,68.745L67.01,68.745C66.939,69.299 66.942,69.796 66.802,70.249C66.582,70.961 65.931,71.134 65.291,71.148C63.673,71.182 62.054,71.178 60.436,71.152C59.557,71.138 59.06,70.628 59.045,69.748C58.994,66.479 58.963,63.21 58.918,59.941C58.912,59.492 59.035,59.263 59.556,59.269C61.694,59.294 63.832,59.295 65.971,59.269C66.484,59.263 66.612,59.437 66.611,59.925C66.606,62.041 66.622,61.656 64.899,61.677C63.885,61.69 62.872,61.68 61.83,61.68Z" style="fill:white;"/>
        </g>
    </g>
</svg>
